<?xml version="1.0" encoding="UTF-8"?>
<svg xmlns="http://www.w3.org/2000/svg" viewBox="0 0 900 420" font-family="Segoe UI, Arial, sans-serif" font-size="13">
  <defs>
    <marker id="arr" viewBox="0 0 10 10" refX="9" refY="5" markerWidth="7" markerHeight="7" orient="auto-start-reverse">
      <path d="M0,0 L10,5 L0,10 z" fill="#333"/>
    </marker>
    <linearGradient id="beam" x1="0" y1="0" x2="1" y2="0">
      <stop offset="0%" stop-color="#4cc38a" stop-opacity="0.15"/>
      <stop offset="100%" stop-color="#4cc38a" stop-opacity="0.85"/>
    </linearGradient>
    <linearGradient id="emit" x1="0" y1="0" x2="1" y2="0">
      <stop offset="0%" stop-color="#e24a4a" stop-opacity="0.85"/>
      <stop offset="100%" stop-color="#e24a4a" stop-opacity="0.15"/>
    </linearGradient>
  </defs>

  <rect x="0" y="0" width="900" height="420" fill="#fafafa"/>
  <text x="450" y="28" text-anchor="middle" font-size="18" font-weight="700">Widefield SOFI Optical Setup (CdSe/ZnS QDots)</text>

  <!-- Laser -->
  <rect x="20" y="180" width="110" height="60" rx="6" fill="#1f6feb" stroke="#0b3d8e"/>
  <text x="75" y="205" text-anchor="middle" fill="#fff" font-weight="700">532 nm Laser</text>
  <text x="75" y="225" text-anchor="middle" fill="#fff" font-size="11">CW excitation</text>

  <!-- Excitation beam (green) -->
  <rect x="130" y="200" width="160" height="20" fill="url(#beam)"/>
  <text x="210" y="190" text-anchor="middle" font-size="11">excitation</text>

  <!-- Dichroic mirror -->
  <line x1="310" y1="165" x2="340" y2="255" stroke="#555" stroke-width="3"/>
  <text x="325" y="160" text-anchor="middle" font-size="11">dichroic</text>

  <!-- Path up to objective -->
  <rect x="320" y="130" width="20" height="80" fill="url(#beam)"/>
  <!-- Objective -->
  <polygon points="290,100 360,100 345,60 305,60" fill="#bfc9d1" stroke="#333"/>
  <text x="325" y="80" text-anchor="middle" font-weight="700" font-size="12">100× / NA 1.4</text>

  <!-- Oil + coverslip + sample -->
  <rect x="280" y="40" width="90" height="8" fill="#ffe29a" stroke="#9a7a00"/>
  <text x="380" y="48" font-size="11">immersion oil</text>
  <rect x="260" y="28" width="130" height="6" fill="#cfe8ff" stroke="#2a6fb8"/>
  <text x="400" y="34" font-size="11">coverslip</text>

  <!-- QDot sample -->
  <circle cx="290" cy="20" r="4" fill="#e24a4a"/>
  <circle cx="305" cy="22" r="4" fill="#e24a4a"/>
  <circle cx="320" cy="19" r="4" fill="#a23" opacity="0.5"/>
  <circle cx="340" cy="21" r="4" fill="#e24a4a"/>
  <circle cx="355" cy="20" r="4" fill="#a23" opacity="0.4"/>
  <text x="400" y="22" font-size="11">blinking QDots on slide (dense labeling)</text>

  <!-- Emission beam returning -->
  <rect x="340" y="130" width="18" height="80" fill="url(#emit)"/>
  <!-- Reflected through dichroic to tube lens -->
  <rect x="340" y="200" width="220" height="20" fill="url(#emit)"/>
  <text x="450" y="190" text-anchor="middle" font-size="11">emission (QDot 620 nm)</text>

  <!-- Emission filter -->
  <rect x="560" y="190" width="14" height="40" fill="#e24a4a" opacity="0.6" stroke="#7a0b0b"/>
  <text x="567" y="185" text-anchor="middle" font-size="11">emission filter</text>

  <!-- Tube lens -->
  <ellipse cx="610" cy="210" rx="10" ry="30" fill="#d6e4ff" stroke="#1f6feb"/>
  <text x="610" y="250" text-anchor="middle" font-size="11">tube lens</text>

  <!-- Beam to camera -->
  <rect x="620" y="200" width="130" height="20" fill="url(#emit)"/>

  <!-- Camera -->
  <rect x="750" y="175" width="120" height="70" rx="6" fill="#222" stroke="#000"/>
  <text x="810" y="200" text-anchor="middle" fill="#fff" font-weight="700">sCMOS</text>
  <text x="810" y="218" text-anchor="middle" fill="#fff" font-size="11">100 Hz, 16-bit</text>
  <text x="810" y="234" text-anchor="middle" fill="#fff" font-size="11">→ TIFF stack</text>

  <!-- Output arrow -->
  <line x1="870" y1="300" x2="870" y2="360" stroke="#333" stroke-width="2" marker-end="url(#arr)"/>
  <text x="810" y="335" font-size="11" text-anchor="middle">frames F(r, t)</text>

  <!-- SOFI pipeline box -->
  <rect x="660" y="350" width="220" height="55" rx="8" fill="#f2eaff" stroke="#7e57c2"/>
  <text x="770" y="372" text-anchor="middle" font-weight="700">SOFI pipeline</text>
  <text x="770" y="390" text-anchor="middle" font-size="11">cumulants → linearize → deconvolve</text>

  <!-- Physical parameters legend -->
  <rect x="30" y="290" width="330" height="115" rx="8" fill="#ffffff" stroke="#ccc"/>
  <text x="45" y="310" font-weight="700">Key physical parameters</text>
  <text x="45" y="330" font-size="11">• Abbe resolution: d = λ/(2·NA) ≈ 620/(2·1.4) ≈ 221 nm</text>
  <text x="45" y="348" font-size="11">• Pixel scale at sample: ~65 nm/px (100× on sCMOS 6.5 µm)</text>
  <text x="45" y="366" font-size="11">• PSF σ ≈ 0.21·λ/NA ≈ 93 nm ≈ 1.4 px</text>
  <text x="45" y="384" font-size="11">• QDot blinking: α_on ≈ 1.5, α_off ≈ 1.6 (power-law)</text>
  <text x="45" y="400" font-size="11">• SOFI order 4 → σ_eff ≈ 46 nm (2× gain beyond Abbe)</text>
</svg>
